<svg xmlns="http://www.w3.org/2000/svg" xmlns:xlink="http://www.w3.org/1999/xlink" width="40" zoomAndPan="magnify" viewBox="0 0 30 30.000001" height="40" preserveAspectRatio="xMidYMid meet" version="1.0"><defs><g/><clipPath id="da0f40b20f"><path d="M 0.484375 0 L 29.515625 0 L 29.515625 29.03125 L 0.484375 29.03125 Z M 0.484375 0 " clip-rule="nonzero"/></clipPath><clipPath id="031d4aecfb"><path d="M 8.402344 5.335938 L 21.46875 5.335938 L 21.46875 18.398438 L 8.402344 18.398438 Z M 8.402344 5.335938 " clip-rule="nonzero"/></clipPath><clipPath id="aa7f080f07"><path d="M 18.191406 13.195312 L 19.925781 14.214844 C 20.113281 14.324219 20.175781 14.5625 20.066406 14.75 C 19.503906 15.699219 18.710938 16.480469 17.769531 17.03125 C 16.851562 17.554688 15.785156 17.851562 14.65625 17.851562 C 14.578125 17.851562 14.476562 17.851562 14.359375 17.84375 L 14.34375 17.84375 C 14.226562 18.089844 14.039062 18.285156 13.8125 18.417969 C 13.515625 18.589844 13.152344 18.644531 12.800781 18.550781 C 12.441406 18.457031 12.15625 18.222656 11.984375 17.929688 C 11.8125 17.632812 11.757812 17.273438 11.851562 16.914062 C 11.945312 16.558594 12.179688 16.269531 12.472656 16.105469 C 12.769531 15.933594 13.136719 15.871094 13.492188 15.964844 C 13.84375 16.066406 14.132812 16.292969 14.304688 16.589844 C 14.382812 16.730469 14.4375 16.898438 14.46875 17.0625 C 14.523438 17.0625 14.585938 17.070312 14.65625 17.070312 C 15.644531 17.070312 16.578125 16.800781 17.378906 16.347656 C 18.089844 15.933594 18.710938 15.367188 19.179688 14.6875 L 17.800781 13.878906 C 17.683594 14.042969 17.550781 14.191406 17.410156 14.339844 C 16.703125 15.039062 15.730469 15.476562 14.65625 15.476562 C 13.59375 15.476562 12.621094 15.039062 11.914062 14.339844 C 11.765625 14.183594 11.617188 14.011719 11.492188 13.832031 L 9.742188 14.8125 C 9.554688 14.921875 9.3125 14.851562 9.210938 14.664062 L 9.203125 14.664062 C 8.945312 14.183594 8.738281 13.683594 8.605469 13.164062 C 8.472656 12.65625 8.402344 12.128906 8.402344 11.589844 C 8.402344 10.929688 8.503906 10.296875 8.691406 9.699219 C 8.867188 9.160156 9.109375 8.660156 9.40625 8.195312 C 9.25 7.96875 9.179688 7.710938 9.179688 7.445312 C 9.179688 7.105469 9.304688 6.761719 9.570312 6.503906 C 9.828125 6.234375 10.175781 6.109375 10.511719 6.109375 C 10.855469 6.109375 11.203125 6.234375 11.460938 6.503906 C 11.71875 6.761719 11.851562 7.105469 11.851562 7.445312 C 11.851562 7.789062 11.71875 8.132812 11.460938 8.390625 C 11.203125 8.652344 10.855469 8.785156 10.511719 8.785156 C 10.347656 8.785156 10.183594 8.753906 10.027344 8.691406 C 9.78125 9.074219 9.585938 9.496094 9.445312 9.9375 C 9.28125 10.460938 9.1875 11.019531 9.1875 11.589844 C 9.1875 12.066406 9.25 12.53125 9.367188 12.96875 C 9.453125 13.296875 9.570312 13.621094 9.710938 13.925781 L 11.105469 13.148438 C 10.894531 12.671875 10.777344 12.144531 10.777344 11.589844 C 10.777344 10.523438 11.21875 9.550781 11.914062 8.847656 C 12.535156 8.234375 13.355469 7.828125 14.265625 7.734375 L 14.265625 5.726562 C 14.265625 5.507812 14.445312 5.335938 14.65625 5.335938 C 15.898438 5.335938 17.058594 5.695312 18.027344 6.324219 C 18.960938 6.917969 19.730469 7.75 20.230469 8.746094 C 20.503906 8.722656 20.773438 8.785156 20.992188 8.917969 L 21 8.917969 C 21.289062 9.089844 21.523438 9.371094 21.617188 9.730469 C 21.710938 10.085938 21.65625 10.445312 21.484375 10.742188 C 21.3125 11.042969 21.03125 11.277344 20.671875 11.371094 C 20.316406 11.464844 19.957031 11.402344 19.660156 11.238281 L 19.660156 11.230469 L 19.660156 11.238281 C 19.359375 11.066406 19.132812 10.773438 19.03125 10.421875 C 18.9375 10.070312 19 9.707031 19.171875 9.410156 L 19.171875 9.402344 C 19.25 9.261719 19.359375 9.128906 19.496094 9.027344 C 19.054688 8.195312 18.398438 7.492188 17.605469 6.980469 C 16.859375 6.503906 15.992188 6.203125 15.058594 6.132812 L 15.058594 7.734375 C 15.96875 7.828125 16.789062 8.234375 17.410156 8.847656 C 18.105469 9.550781 18.546875 10.523438 18.546875 11.589844 C 18.546875 12.171875 18.421875 12.710938 18.191406 13.195312 Z M 16.851562 9.402344 C 16.289062 8.847656 15.511719 8.5 14.65625 8.5 C 13.8125 8.5 13.035156 8.847656 12.472656 9.402344 C 11.914062 9.96875 11.570312 10.742188 11.570312 11.589844 C 11.570312 12.445312 11.914062 13.21875 12.472656 13.785156 C 13.035156 14.339844 13.8125 14.6875 14.65625 14.6875 C 15.511719 14.6875 16.289062 14.339844 16.851562 13.785156 C 17.410156 13.21875 17.753906 12.445312 17.753906 11.589844 C 17.753906 10.742188 17.410156 9.96875 16.851562 9.402344 Z M 14.65625 10.007812 C 15.097656 10.007812 15.496094 10.1875 15.777344 10.476562 C 16.070312 10.757812 16.25 11.160156 16.25 11.589844 C 16.25 12.027344 16.070312 12.429688 15.777344 12.710938 C 15.496094 13 15.097656 13.179688 14.65625 13.179688 C 14.226562 13.179688 13.828125 13 13.546875 12.710938 C 13.253906 12.429688 13.074219 12.027344 13.074219 11.589844 C 13.074219 11.160156 13.253906 10.757812 13.546875 10.476562 C 13.828125 10.1875 14.226562 10.007812 14.65625 10.007812 Z M 15.222656 11.035156 C 15.082031 10.882812 14.886719 10.796875 14.65625 10.796875 C 14.4375 10.796875 14.242188 10.882812 14.101562 11.035156 C 13.953125 11.175781 13.867188 11.371094 13.867188 11.589844 C 13.867188 11.816406 13.953125 12.011719 14.101562 12.15625 C 14.242188 12.304688 14.4375 12.390625 14.65625 12.390625 C 14.886719 12.390625 15.082031 12.304688 15.222656 12.15625 C 15.371094 12.011719 15.457031 11.816406 15.457031 11.589844 C 15.457031 11.371094 15.371094 11.175781 15.222656 11.035156 Z M 10.511719 6.894531 C 10.371094 6.894531 10.230469 6.949219 10.128906 7.058594 C 10.019531 7.160156 9.964844 7.300781 9.964844 7.445312 C 9.964844 7.585938 10.019531 7.726562 10.128906 7.835938 C 10.230469 7.945312 10.371094 8 10.511719 8 C 10.652344 8 10.792969 7.945312 10.902344 7.835938 C 11.011719 7.726562 11.066406 7.585938 11.066406 7.445312 C 11.066406 7.300781 11.011719 7.160156 10.902344 7.058594 C 10.792969 6.949219 10.652344 6.894531 10.511719 6.894531 Z M 12.667969 17.53125 C 12.738281 17.65625 12.855469 17.75 13.003906 17.789062 C 13.144531 17.828125 13.292969 17.804688 13.417969 17.734375 C 13.546875 17.664062 13.640625 17.546875 13.679688 17.40625 C 13.71875 17.257812 13.695312 17.109375 13.625 16.984375 C 13.554688 16.863281 13.433594 16.761719 13.285156 16.722656 C 13.136719 16.683594 12.988281 16.707031 12.871094 16.777344 C 12.746094 16.847656 12.652344 16.96875 12.613281 17.117188 C 12.574219 17.265625 12.597656 17.414062 12.667969 17.53125 Z M 20.804688 10.351562 C 20.875 10.226562 20.898438 10.078125 20.859375 9.9375 C 20.820312 9.785156 20.726562 9.667969 20.601562 9.597656 C 20.480469 9.527344 20.332031 9.503906 20.183594 9.542969 C 20.035156 9.582031 19.917969 9.675781 19.847656 9.804688 C 19.777344 9.921875 19.753906 10.070312 19.792969 10.21875 C 19.832031 10.367188 19.933594 10.484375 20.050781 10.554688 C 20.175781 10.625 20.324219 10.648438 20.472656 10.609375 C 20.617188 10.570312 20.734375 10.476562 20.804688 10.351562 Z M 20.804688 10.351562 " clip-rule="nonzero"/></clipPath><linearGradient x1="5.543417" gradientTransform="matrix(0.783844, 0, 0, 0.783844, 8.403102, 5.334868)" y1="18.099962" x2="10.62506" gradientUnits="userSpaceOnUse" y2="-1.561627" id="ece3774ddf"><stop stop-opacity="1" stop-color="rgb(2.496338%, 5.099487%, 82.618713%)" offset="0"/><stop stop-opacity="1" stop-color="rgb(2.528381%, 5.099487%, 82.051086%)" offset="0.00390625"/><stop stop-opacity="1" stop-color="rgb(2.560425%, 5.099487%, 81.483459%)" offset="0.0078125"/><stop stop-opacity="1" stop-color="rgb(2.592468%, 5.099487%, 80.915833%)" offset="0.0117187"/><stop stop-opacity="1" stop-color="rgb(2.624512%, 5.099487%, 80.348206%)" offset="0.015625"/><stop stop-opacity="1" stop-color="rgb(2.656555%, 5.099487%, 79.779053%)" offset="0.0195312"/><stop stop-opacity="1" stop-color="rgb(2.688599%, 5.099487%, 79.211426%)" offset="0.0234375"/><stop stop-opacity="1" stop-color="rgb(2.720642%, 5.099487%, 78.643799%)" offset="0.0273438"/><stop stop-opacity="1" stop-color="rgb(2.752686%, 5.099487%, 78.076172%)" offset="0.03125"/><stop stop-opacity="1" stop-color="rgb(2.784729%, 5.099487%, 77.507019%)" offset="0.0351563"/><stop stop-opacity="1" stop-color="rgb(2.816772%, 5.099487%, 76.939392%)" offset="0.0390625"/><stop stop-opacity="1" stop-color="rgb(2.848816%, 5.099487%, 76.371765%)" offset="0.0429688"/><stop stop-opacity="1" stop-color="rgb(2.880859%, 5.099487%, 75.804138%)" offset="0.046875"/><stop stop-opacity="1" stop-color="rgb(2.912903%, 5.099487%, 75.234985%)" offset="0.0507812"/><stop stop-opacity="1" stop-color="rgb(2.944946%, 5.099487%, 74.667358%)" offset="0.0546875"/><stop stop-opacity="1" stop-color="rgb(2.97699%, 5.099487%, 74.099731%)" offset="0.0585938"/><stop stop-opacity="1" stop-color="rgb(3.009033%, 5.099487%, 73.532104%)" offset="0.0625"/><stop stop-opacity="1" stop-color="rgb(3.041077%, 5.099487%, 72.964478%)" offset="0.0664062"/><stop stop-opacity="1" stop-color="rgb(3.07312%, 5.099487%, 72.396851%)" offset="0.0703125"/><stop stop-opacity="1" stop-color="rgb(3.105164%, 5.099487%, 71.827698%)" offset="0.0742187"/><stop stop-opacity="1" stop-color="rgb(3.137207%, 5.099487%, 71.260071%)" offset="0.078125"/><stop stop-opacity="1" stop-color="rgb(3.16925%, 5.099487%, 70.692444%)" offset="0.0820312"/><stop stop-opacity="1" stop-color="rgb(3.201294%, 5.099487%, 70.124817%)" offset="0.0859375"/><stop stop-opacity="1" stop-color="rgb(3.233337%, 5.099487%, 69.555664%)" offset="0.0898437"/><stop stop-opacity="1" stop-color="rgb(3.265381%, 5.099487%, 68.988037%)" offset="0.09375"/><stop stop-opacity="1" stop-color="rgb(3.297424%, 5.099487%, 68.42041%)" offset="0.0976562"/><stop stop-opacity="1" stop-color="rgb(3.329468%, 5.099487%, 67.852783%)" offset="0.101562"/><stop stop-opacity="1" stop-color="rgb(3.361511%, 5.099487%, 67.28363%)" offset="0.105469"/><stop stop-opacity="1" stop-color="rgb(3.393555%, 5.099487%, 66.716003%)" offset="0.109375"/><stop stop-opacity="1" stop-color="rgb(3.425598%, 5.099487%, 66.148376%)" offset="0.113281"/><stop stop-opacity="1" stop-color="rgb(3.457642%, 5.099487%, 65.58075%)" offset="0.117188"/><stop stop-opacity="1" stop-color="rgb(3.489685%, 5.099487%, 65.013123%)" offset="0.121094"/><stop stop-opacity="1" stop-color="rgb(3.521729%, 5.099487%, 64.445496%)" offset="0.125"/><stop stop-opacity="1" stop-color="rgb(3.553772%, 5.099487%, 63.876343%)" offset="0.128906"/><stop stop-opacity="1" stop-color="rgb(3.585815%, 5.099487%, 63.308716%)" offset="0.132812"/><stop stop-opacity="1" stop-color="rgb(3.617859%, 5.099487%, 62.741089%)" offset="0.136719"/><stop stop-opacity="1" stop-color="rgb(3.649902%, 5.099487%, 62.173462%)" offset="0.140625"/><stop stop-opacity="1" stop-color="rgb(3.681946%, 5.099487%, 61.604309%)" offset="0.144531"/><stop stop-opacity="1" stop-color="rgb(3.713989%, 5.099487%, 61.036682%)" offset="0.148438"/><stop stop-opacity="1" stop-color="rgb(3.746033%, 5.099487%, 60.469055%)" offset="0.152344"/><stop stop-opacity="1" stop-color="rgb(3.778076%, 5.099487%, 59.901428%)" offset="0.15625"/><stop stop-opacity="1" stop-color="rgb(3.808594%, 5.099487%, 59.332275%)" offset="0.160156"/><stop stop-opacity="1" stop-color="rgb(3.840637%, 5.099487%, 58.764648%)" offset="0.164062"/><stop stop-opacity="1" stop-color="rgb(3.872681%, 5.099487%, 58.197021%)" offset="0.167969"/><stop stop-opacity="1" stop-color="rgb(3.904724%, 5.099487%, 57.629395%)" offset="0.171875"/><stop stop-opacity="1" stop-color="rgb(3.936768%, 5.099487%, 57.061768%)" offset="0.175781"/><stop stop-opacity="1" stop-color="rgb(3.968811%, 5.099487%, 56.494141%)" offset="0.179688"/><stop stop-opacity="1" stop-color="rgb(4.000854%, 5.099487%, 55.924988%)" offset="0.183594"/><stop stop-opacity="1" stop-color="rgb(4.032898%, 5.099487%, 55.357361%)" offset="0.1875"/><stop stop-opacity="1" stop-color="rgb(4.064941%, 5.099487%, 54.789734%)" offset="0.191406"/><stop stop-opacity="1" stop-color="rgb(4.096985%, 5.099487%, 54.222107%)" offset="0.195313"/><stop stop-opacity="1" stop-color="rgb(4.129028%, 5.099487%, 53.652954%)" offset="0.199219"/><stop stop-opacity="1" stop-color="rgb(4.161072%, 5.099487%, 53.085327%)" offset="0.203125"/><stop stop-opacity="1" stop-color="rgb(4.193115%, 5.099487%, 52.5177%)" offset="0.207031"/><stop stop-opacity="1" stop-color="rgb(4.225159%, 5.099487%, 51.950073%)" offset="0.210938"/><stop stop-opacity="1" stop-color="rgb(4.257202%, 5.099487%, 51.38092%)" offset="0.214844"/><stop stop-opacity="1" stop-color="rgb(4.289246%, 5.099487%, 50.813293%)" offset="0.21875"/><stop stop-opacity="1" stop-color="rgb(4.321289%, 5.099487%, 50.245667%)" offset="0.222656"/><stop stop-opacity="1" stop-color="rgb(4.353333%, 5.099487%, 49.67804%)" offset="0.226563"/><stop stop-opacity="1" stop-color="rgb(4.385376%, 5.099487%, 49.110413%)" offset="0.230469"/><stop stop-opacity="1" stop-color="rgb(4.417419%, 5.099487%, 48.542786%)" offset="0.234375"/><stop stop-opacity="1" stop-color="rgb(4.449463%, 5.099487%, 47.973633%)" offset="0.238281"/><stop stop-opacity="1" stop-color="rgb(4.481506%, 5.099487%, 47.406006%)" offset="0.242188"/><stop stop-opacity="1" stop-color="rgb(4.51355%, 5.099487%, 46.838379%)" offset="0.246094"/><stop stop-opacity="1" stop-color="rgb(4.545593%, 5.099487%, 46.270752%)" offset="0.25"/><stop stop-opacity="1" stop-color="rgb(4.577637%, 5.099487%, 45.701599%)" offset="0.253906"/><stop stop-opacity="1" stop-color="rgb(4.60968%, 5.099487%, 45.133972%)" offset="0.257812"/><stop stop-opacity="1" stop-color="rgb(4.641724%, 5.099487%, 44.566345%)" offset="0.261719"/><stop stop-opacity="1" stop-color="rgb(4.673767%, 5.099487%, 43.998718%)" offset="0.265625"/><stop stop-opacity="1" stop-color="rgb(4.705811%, 5.099487%, 43.429565%)" offset="0.269531"/><stop stop-opacity="1" stop-color="rgb(4.737854%, 5.099487%, 42.861938%)" offset="0.273437"/><stop stop-opacity="1" stop-color="rgb(4.769897%, 5.099487%, 42.294312%)" offset="0.277344"/><stop stop-opacity="1" stop-color="rgb(4.801941%, 5.099487%, 41.726685%)" offset="0.28125"/><stop stop-opacity="1" stop-color="rgb(4.833984%, 5.099487%, 41.159058%)" offset="0.285156"/><stop stop-opacity="1" stop-color="rgb(4.866028%, 5.099487%, 40.591431%)" offset="0.289062"/><stop stop-opacity="1" stop-color="rgb(4.898071%, 5.099487%, 40.022278%)" offset="0.292969"/><stop stop-opacity="1" stop-color="rgb(4.930115%, 5.099487%, 39.454651%)" offset="0.296875"/><stop stop-opacity="1" stop-color="rgb(4.962158%, 5.099487%, 38.887024%)" offset="0.300781"/><stop stop-opacity="1" stop-color="rgb(4.994202%, 5.099487%, 38.319397%)" offset="0.304688"/><stop stop-opacity="1" stop-color="rgb(5.026245%, 5.099487%, 37.750244%)" offset="0.308594"/><stop stop-opacity="1" stop-color="rgb(5.058289%, 5.099487%, 37.182617%)" offset="0.3125"/><stop stop-opacity="1" stop-color="rgb(5.090332%, 5.099487%, 36.61499%)" offset="0.316406"/><stop stop-opacity="1" stop-color="rgb(5.122375%, 5.099487%, 36.047363%)" offset="0.320312"/><stop stop-opacity="1" stop-color="rgb(5.154419%, 5.099487%, 35.47821%)" offset="0.324219"/><stop stop-opacity="1" stop-color="rgb(5.186462%, 5.099487%, 34.910583%)" offset="0.328125"/><stop stop-opacity="1" stop-color="rgb(5.218506%, 5.099487%, 34.342957%)" offset="0.332031"/><stop stop-opacity="1" stop-color="rgb(5.250549%, 5.099487%, 33.77533%)" offset="0.335938"/><stop stop-opacity="1" stop-color="rgb(5.282593%, 5.099487%, 33.207703%)" offset="0.339844"/><stop stop-opacity="1" stop-color="rgb(5.314636%, 5.099487%, 32.640076%)" offset="0.34375"/><stop stop-opacity="1" stop-color="rgb(5.345154%, 5.099487%, 32.070923%)" offset="0.347656"/><stop stop-opacity="1" stop-color="rgb(5.377197%, 5.099487%, 31.503296%)" offset="0.351562"/><stop stop-opacity="1" stop-color="rgb(5.409241%, 5.099487%, 30.935669%)" offset="0.355469"/><stop stop-opacity="1" stop-color="rgb(5.441284%, 5.099487%, 30.368042%)" offset="0.359375"/><stop stop-opacity="1" stop-color="rgb(5.473328%, 5.099487%, 29.798889%)" offset="0.363281"/><stop stop-opacity="1" stop-color="rgb(5.505371%, 5.099487%, 29.231262%)" offset="0.367188"/><stop stop-opacity="1" stop-color="rgb(5.537415%, 5.099487%, 28.663635%)" offset="0.371094"/><stop stop-opacity="1" stop-color="rgb(5.569458%, 5.099487%, 28.096008%)" offset="0.375"/><stop stop-opacity="1" stop-color="rgb(5.601501%, 5.099487%, 27.526855%)" offset="0.378906"/><stop stop-opacity="1" stop-color="rgb(5.633545%, 5.099487%, 26.959229%)" offset="0.382813"/><stop stop-opacity="1" stop-color="rgb(5.665588%, 5.099487%, 26.391602%)" offset="0.386719"/><stop stop-opacity="1" stop-color="rgb(5.697632%, 5.099487%, 25.823975%)" offset="0.390625"/><stop stop-opacity="1" stop-color="rgb(5.729675%, 5.099487%, 25.254822%)" offset="0.394531"/><stop stop-opacity="1" stop-color="rgb(5.761719%, 5.099487%, 24.687195%)" offset="0.398438"/><stop stop-opacity="1" stop-color="rgb(5.793762%, 5.099487%, 24.119568%)" offset="0.402344"/><stop stop-opacity="1" stop-color="rgb(5.825806%, 5.099487%, 23.551941%)" offset="0.40625"/><stop stop-opacity="1" stop-color="rgb(5.857849%, 5.099487%, 22.984314%)" offset="0.410156"/><stop stop-opacity="1" stop-color="rgb(5.889893%, 5.099487%, 22.416687%)" offset="0.414063"/><stop stop-opacity="1" stop-color="rgb(5.921936%, 5.099487%, 21.847534%)" offset="0.417969"/><stop stop-opacity="1" stop-color="rgb(5.953979%, 5.099487%, 21.279907%)" offset="0.421875"/><stop stop-opacity="1" stop-color="rgb(5.986023%, 5.099487%, 20.71228%)" offset="0.425781"/><stop stop-opacity="1" stop-color="rgb(6.018066%, 5.099487%, 20.144653%)" offset="0.429688"/><stop stop-opacity="1" stop-color="rgb(6.05011%, 5.099487%, 19.5755%)" offset="0.433594"/><stop stop-opacity="1" stop-color="rgb(6.082153%, 5.099487%, 19.007874%)" offset="0.4375"/><stop stop-opacity="1" stop-color="rgb(6.114197%, 5.099487%, 18.440247%)" offset="0.441406"/><stop stop-opacity="1" stop-color="rgb(6.14624%, 5.099487%, 17.87262%)" offset="0.445312"/><stop stop-opacity="1" stop-color="rgb(6.178284%, 5.099487%, 17.303467%)" offset="0.449219"/><stop stop-opacity="1" stop-color="rgb(6.210327%, 5.099487%, 16.73584%)" offset="0.453125"/><stop stop-opacity="1" stop-color="rgb(6.298828%, 5.096436%, 16.25824%)" offset="0.457031"/><stop stop-opacity="1" stop-color="rgb(6.387329%, 5.093384%, 15.782166%)" offset="0.460938"/><stop stop-opacity="1" stop-color="rgb(7.147217%, 5.050659%, 16.372681%)" offset="0.464844"/><stop stop-opacity="1" stop-color="rgb(7.90863%, 5.00946%, 16.964722%)" offset="0.46875"/><stop stop-opacity="1" stop-color="rgb(8.668518%, 4.968262%, 17.555237%)" offset="0.472656"/><stop stop-opacity="1" stop-color="rgb(9.428406%, 4.927063%, 18.147278%)" offset="0.476562"/><stop stop-opacity="1" stop-color="rgb(10.188293%, 4.885864%, 18.739319%)" offset="0.480469"/><stop stop-opacity="1" stop-color="rgb(10.949707%, 4.844666%, 19.33136%)" offset="0.484375"/><stop stop-opacity="1" stop-color="rgb(11.709595%, 4.803467%, 19.921875%)" offset="0.488281"/><stop stop-opacity="1" stop-color="rgb(12.469482%, 4.762268%, 20.513916%)" offset="0.492188"/><stop stop-opacity="1" stop-color="rgb(13.22937%, 4.721069%, 21.105957%)" offset="0.496094"/><stop stop-opacity="1" stop-color="rgb(13.990784%, 4.679871%, 21.697998%)" offset="0.5"/><stop stop-opacity="1" stop-color="rgb(14.750671%, 4.637146%, 22.288513%)" offset="0.503906"/><stop stop-opacity="1" stop-color="rgb(15.510559%, 4.595947%, 22.880554%)" offset="0.507812"/><stop stop-opacity="1" stop-color="rgb(16.270447%, 4.554749%, 23.472595%)" offset="0.511719"/><stop stop-opacity="1" stop-color="rgb(17.030334%, 4.51355%, 24.064636%)" offset="0.515625"/><stop stop-opacity="1" stop-color="rgb(17.790222%, 4.472351%, 24.655151%)" offset="0.519531"/><stop stop-opacity="1" stop-color="rgb(18.551636%, 4.431152%, 25.247192%)" offset="0.523437"/><stop stop-opacity="1" stop-color="rgb(19.311523%, 4.389954%, 25.837708%)" offset="0.527344"/><stop stop-opacity="1" stop-color="rgb(20.071411%, 4.348755%, 26.429749%)" offset="0.53125"/><stop stop-opacity="1" stop-color="rgb(20.831299%, 4.30603%, 27.02179%)" offset="0.535156"/><stop stop-opacity="1" stop-color="rgb(21.592712%, 4.264832%, 27.613831%)" offset="0.539062"/><stop stop-opacity="1" stop-color="rgb(22.3526%, 4.223633%, 28.204346%)" offset="0.542969"/><stop stop-opacity="1" stop-color="rgb(23.112488%, 4.182434%, 28.796387%)" offset="0.546875"/><stop stop-opacity="1" stop-color="rgb(23.872375%, 4.141235%, 29.388428%)" offset="0.550781"/><stop stop-opacity="1" stop-color="rgb(24.633789%, 4.100037%, 29.980469%)" offset="0.554687"/><stop stop-opacity="1" stop-color="rgb(25.393677%, 4.058838%, 30.570984%)" offset="0.558594"/><stop stop-opacity="1" stop-color="rgb(26.153564%, 4.017639%, 31.163025%)" offset="0.5625"/><stop stop-opacity="1" stop-color="rgb(26.913452%, 3.97644%, 31.755066%)" offset="0.566406"/><stop stop-opacity="1" stop-color="rgb(27.674866%, 3.935242%, 32.347107%)" offset="0.570312"/><stop stop-opacity="1" stop-color="rgb(28.434753%, 3.892517%, 32.937622%)" offset="0.574219"/><stop stop-opacity="1" stop-color="rgb(29.194641%, 3.851318%, 33.529663%)" offset="0.578125"/><stop stop-opacity="1" stop-color="rgb(29.954529%, 3.81012%, 34.120178%)" offset="0.582031"/><stop stop-opacity="1" stop-color="rgb(30.715942%, 3.768921%, 34.712219%)" offset="0.585938"/><stop stop-opacity="1" stop-color="rgb(31.47583%, 3.727722%, 35.30426%)" offset="0.589844"/><stop stop-opacity="1" stop-color="rgb(32.235718%, 3.686523%, 35.896301%)" offset="0.59375"/><stop stop-opacity="1" stop-color="rgb(32.995605%, 3.645325%, 36.486816%)" offset="0.597656"/><stop stop-opacity="1" stop-color="rgb(33.755493%, 3.604126%, 37.078857%)" offset="0.601562"/><stop stop-opacity="1" stop-color="rgb(34.515381%, 3.561401%, 37.670898%)" offset="0.605469"/><stop stop-opacity="1" stop-color="rgb(35.276794%, 3.520203%, 38.262939%)" offset="0.609375"/><stop stop-opacity="1" stop-color="rgb(36.036682%, 3.479004%, 38.853455%)" offset="0.613281"/><stop stop-opacity="1" stop-color="rgb(36.79657%, 3.437805%, 39.445496%)" offset="0.617188"/><stop stop-opacity="1" stop-color="rgb(37.556458%, 3.396606%, 40.037537%)" offset="0.621094"/><stop stop-opacity="1" stop-color="rgb(38.317871%, 3.355408%, 40.629578%)" offset="0.625"/><stop stop-opacity="1" stop-color="rgb(39.077759%, 3.314209%, 41.220093%)" offset="0.628906"/><stop stop-opacity="1" stop-color="rgb(39.837646%, 3.27301%, 41.812134%)" offset="0.632812"/><stop stop-opacity="1" stop-color="rgb(40.597534%, 3.231812%, 42.402649%)" offset="0.636719"/><stop stop-opacity="1" stop-color="rgb(41.358948%, 3.190613%, 42.99469%)" offset="0.640625"/><stop stop-opacity="1" stop-color="rgb(42.118835%, 3.147888%, 43.586731%)" offset="0.644531"/><stop stop-opacity="1" stop-color="rgb(42.878723%, 3.106689%, 44.178772%)" offset="0.648438"/><stop stop-opacity="1" stop-color="rgb(43.638611%, 3.065491%, 44.769287%)" offset="0.652344"/><stop stop-opacity="1" stop-color="rgb(44.400024%, 3.024292%, 45.361328%)" offset="0.65625"/><stop stop-opacity="1" stop-color="rgb(45.159912%, 2.983093%, 45.953369%)" offset="0.660156"/><stop stop-opacity="1" stop-color="rgb(45.9198%, 2.941895%, 46.54541%)" offset="0.664062"/><stop stop-opacity="1" stop-color="rgb(46.679688%, 2.900696%, 47.135925%)" offset="0.667969"/><stop stop-opacity="1" stop-color="rgb(47.439575%, 2.859497%, 47.727966%)" offset="0.671875"/><stop stop-opacity="1" stop-color="rgb(48.199463%, 2.816772%, 48.320007%)" offset="0.675781"/><stop stop-opacity="1" stop-color="rgb(48.960876%, 2.775574%, 48.912048%)" offset="0.679688"/><stop stop-opacity="1" stop-color="rgb(49.720764%, 2.734375%, 49.502563%)" offset="0.683594"/><stop stop-opacity="1" stop-color="rgb(50.480652%, 2.693176%, 50.094604%)" offset="0.6875"/><stop stop-opacity="1" stop-color="rgb(51.24054%, 2.651978%, 50.68512%)" offset="0.691406"/><stop stop-opacity="1" stop-color="rgb(52.001953%, 2.610779%, 51.277161%)" offset="0.695312"/><stop stop-opacity="1" stop-color="rgb(52.761841%, 2.56958%, 51.869202%)" offset="0.699219"/><stop stop-opacity="1" stop-color="rgb(53.521729%, 2.528381%, 52.461243%)" offset="0.703125"/><stop stop-opacity="1" stop-color="rgb(54.281616%, 2.487183%, 53.051758%)" offset="0.707031"/><stop stop-opacity="1" stop-color="rgb(55.04303%, 2.445984%, 53.643799%)" offset="0.710938"/><stop stop-opacity="1" stop-color="rgb(55.802917%, 2.403259%, 54.23584%)" offset="0.714844"/><stop stop-opacity="1" stop-color="rgb(56.562805%, 2.362061%, 54.827881%)" offset="0.71875"/><stop stop-opacity="1" stop-color="rgb(57.322693%, 2.320862%, 55.418396%)" offset="0.722656"/><stop stop-opacity="1" stop-color="rgb(58.084106%, 2.279663%, 56.010437%)" offset="0.726562"/><stop stop-opacity="1" stop-color="rgb(58.843994%, 2.238464%, 56.602478%)" offset="0.730469"/><stop stop-opacity="1" stop-color="rgb(59.603882%, 2.197266%, 57.194519%)" offset="0.734375"/><stop stop-opacity="1" stop-color="rgb(60.36377%, 2.156067%, 57.785034%)" offset="0.738281"/><stop stop-opacity="1" stop-color="rgb(61.123657%, 2.114868%, 58.377075%)" offset="0.742188"/><stop stop-opacity="1" stop-color="rgb(61.883545%, 2.073669%, 58.96759%)" offset="0.746094"/><stop stop-opacity="1" stop-color="rgb(62.644958%, 2.032471%, 59.559631%)" offset="0.75"/><stop stop-opacity="1" stop-color="rgb(63.404846%, 1.989746%, 60.151672%)" offset="0.753906"/><stop stop-opacity="1" stop-color="rgb(64.164734%, 1.948547%, 60.743713%)" offset="0.757813"/><stop stop-opacity="1" stop-color="rgb(64.924622%, 1.907349%, 61.334229%)" offset="0.761719"/><stop stop-opacity="1" stop-color="rgb(65.686035%, 1.86615%, 61.92627%)" offset="0.765625"/><stop stop-opacity="1" stop-color="rgb(66.445923%, 1.824951%, 62.518311%)" offset="0.769531"/><stop stop-opacity="1" stop-color="rgb(67.205811%, 1.783752%, 63.110352%)" offset="0.773438"/><stop stop-opacity="1" stop-color="rgb(67.965698%, 1.742554%, 63.700867%)" offset="0.777344"/><stop stop-opacity="1" stop-color="rgb(68.727112%, 1.701355%, 64.292908%)" offset="0.78125"/><stop stop-opacity="1" stop-color="rgb(69.487%, 1.65863%, 64.884949%)" offset="0.785156"/><stop stop-opacity="1" stop-color="rgb(70.246887%, 1.617432%, 65.47699%)" offset="0.789063"/><stop stop-opacity="1" stop-color="rgb(71.006775%, 1.576233%, 66.067505%)" offset="0.792969"/><stop stop-opacity="1" stop-color="rgb(71.768188%, 1.535034%, 66.659546%)" offset="0.796875"/><stop stop-opacity="1" stop-color="rgb(72.528076%, 1.493835%, 67.250061%)" offset="0.800781"/><stop stop-opacity="1" stop-color="rgb(73.287964%, 1.452637%, 67.842102%)" offset="0.804688"/><stop stop-opacity="1" stop-color="rgb(74.047852%, 1.411438%, 68.434143%)" offset="0.808594"/><stop stop-opacity="1" stop-color="rgb(74.809265%, 1.370239%, 69.026184%)" offset="0.8125"/><stop stop-opacity="1" stop-color="rgb(75.569153%, 1.329041%, 69.616699%)" offset="0.816406"/><stop stop-opacity="1" stop-color="rgb(76.329041%, 1.287842%, 70.20874%)" offset="0.820313"/><stop stop-opacity="1" stop-color="rgb(77.088928%, 1.245117%, 70.800781%)" offset="0.824219"/><stop stop-opacity="1" stop-color="rgb(77.848816%, 1.203918%, 71.392822%)" offset="0.828125"/><stop stop-opacity="1" stop-color="rgb(78.608704%, 1.16272%, 71.983337%)" offset="0.832031"/><stop stop-opacity="1" stop-color="rgb(79.370117%, 1.121521%, 72.575378%)" offset="0.835938"/><stop stop-opacity="1" stop-color="rgb(80.130005%, 1.080322%, 73.167419%)" offset="0.839844"/><stop stop-opacity="1" stop-color="rgb(80.889893%, 1.039124%, 73.75946%)" offset="0.84375"/><stop stop-opacity="1" stop-color="rgb(81.64978%, 0.997925%, 74.349976%)" offset="0.847656"/><stop stop-opacity="1" stop-color="rgb(82.411194%, 0.956726%, 74.942017%)" offset="0.851563"/><stop stop-opacity="1" stop-color="rgb(83.171082%, 0.914001%, 75.532532%)" offset="0.855469"/><stop stop-opacity="1" stop-color="rgb(83.930969%, 0.872803%, 76.124573%)" offset="0.859375"/><stop stop-opacity="1" stop-color="rgb(84.690857%, 0.831604%, 76.716614%)" offset="0.863281"/><stop stop-opacity="1" stop-color="rgb(85.452271%, 0.790405%, 77.308655%)" offset="0.867188"/><stop stop-opacity="1" stop-color="rgb(86.212158%, 0.749207%, 77.89917%)" offset="0.871094"/><stop stop-opacity="1" stop-color="rgb(86.972046%, 0.708008%, 78.491211%)" offset="0.875"/><stop stop-opacity="1" stop-color="rgb(87.731934%, 0.666809%, 79.083252%)" offset="0.878906"/><stop stop-opacity="1" stop-color="rgb(88.493347%, 0.62561%, 79.675293%)" offset="0.882812"/><stop stop-opacity="1" stop-color="rgb(89.253235%, 0.584412%, 80.265808%)" offset="0.886719"/><stop stop-opacity="1" stop-color="rgb(90.013123%, 0.543213%, 80.857849%)" offset="0.890625"/><stop stop-opacity="1" stop-color="rgb(90.77301%, 0.500488%, 81.44989%)" offset="0.894531"/><stop stop-opacity="1" stop-color="rgb(91.532898%, 0.45929%, 82.041931%)" offset="0.898437"/><stop stop-opacity="1" stop-color="rgb(92.292786%, 0.418091%, 82.632446%)" offset="0.902344"/><stop stop-opacity="1" stop-color="rgb(93.054199%, 0.376892%, 83.224487%)" offset="0.90625"/><stop stop-opacity="1" stop-color="rgb(93.814087%, 0.335693%, 83.815002%)" offset="0.910156"/><stop stop-opacity="1" stop-color="rgb(94.573975%, 0.294495%, 84.407043%)" offset="0.914062"/><stop stop-opacity="1" stop-color="rgb(95.333862%, 0.253296%, 84.999084%)" offset="0.917969"/><stop stop-opacity="1" stop-color="rgb(96.095276%, 0.212097%, 85.591125%)" offset="0.921875"/><stop stop-opacity="1" stop-color="rgb(96.855164%, 0.170898%, 86.181641%)" offset="0.925781"/><stop stop-opacity="1" stop-color="rgb(97.615051%, 0.1297%, 86.773682%)" offset="0.929688"/><stop stop-opacity="1" stop-color="rgb(98.374939%, 0.0869751%, 87.365723%)" offset="0.933594"/><stop stop-opacity="1" stop-color="rgb(99.136353%, 0.0457764%, 87.957764%)" offset="0.9375"/><stop stop-opacity="1" stop-color="rgb(99.568176%, 0.0228882%, 88.293457%)" offset="0.941406"/><stop stop-opacity="1" stop-color="rgb(100%, 0%, 88.62915%)" offset="0.945313"/><stop stop-opacity="1" stop-color="rgb(100%, 0%, 88.62915%)" offset="0.953125"/><stop stop-opacity="1" stop-color="rgb(100%, 0%, 88.62915%)" offset="0.96875"/><stop stop-opacity="1" stop-color="rgb(100%, 0%, 88.62915%)" offset="1"/></linearGradient><clipPath id="dd436fa5ce"><rect x="0" width="20" y="0" height="5"/></clipPath><clipPath id="8f48801073"><path d="M 1 1 L 2 1 L 2 2.992188 L 1 2.992188 Z M 1 1 " clip-rule="nonzero"/></clipPath><clipPath id="af710df307"><path d="M 2 1 L 4 1 L 4 2.992188 L 2 2.992188 Z M 2 1 " clip-rule="nonzero"/></clipPath><clipPath id="da521df8cd"><path d="M 4 1 L 5 1 L 5 2.992188 L 4 2.992188 Z M 4 1 " clip-rule="nonzero"/></clipPath><clipPath id="ebd5a18fc2"><rect x="0" width="6" y="0" height="3"/></clipPath></defs><g clip-path="url(#da0f40b20f)"><path fill="#ffffff" d="M 0.484375 0 L 29.515625 0 L 29.515625 29.03125 L 0.484375 29.03125 Z M 0.484375 0 " fill-opacity="1" fill-rule="nonzero"/><path fill="#ffffff" d="M 0.484375 0 L 29.515625 0 L 29.515625 29.03125 L 0.484375 29.03125 Z M 0.484375 0 " fill-opacity="1" fill-rule="nonzero"/></g><g clip-path="url(#031d4aecfb)"><g clip-path="url(#aa7f080f07)"><path fill="url(#ece3774ddf)" d="M 8.402344 5.335938 L 8.402344 18.398438 L 21.46875 18.398438 L 21.46875 5.335938 Z M 8.402344 5.335938 " fill-rule="nonzero"/></g></g><g transform="matrix(1, 0, 0, 1, 3, 19)"><g clip-path="url(#dd436fa5ce)"><g fill="#5e17eb" fill-opacity="1"><g transform="translate(0.994602, 3.917656)"><g><path d="M 1.78125 -1.765625 L 0.671875 -0.4375 L 1.296875 -0.4375 L 1.296875 -0.78125 L 1.78125 -0.78125 L 1.78125 0 L 0.09375 0 L 0.09375 -0.453125 L 1.171875 -1.78125 L 0.5625 -1.78125 L 0.5625 -1.4375 L 0.09375 -1.4375 L 0.09375 -2.21875 L 1.78125 -2.21875 Z M 1.78125 -1.765625 "/></g></g></g><g fill="#5e17eb" fill-opacity="1"><g transform="translate(3.783019, 3.917656)"><g><path d="M 0.171875 -2.21875 L 1.9375 -2.21875 L 1.9375 -1.46875 L 1.453125 -1.46875 L 1.453125 -1.78125 L 0.890625 -1.78125 L 0.890625 -1.34375 L 1.328125 -1.34375 L 1.328125 -0.921875 L 0.890625 -0.921875 L 0.890625 -0.40625 L 1.453125 -0.40625 L 1.453125 -0.796875 L 1.9375 -0.796875 L 1.9375 0 L 0.171875 0 L 0.171875 -0.40625 L 0.40625 -0.40625 L 0.40625 -1.78125 L 0.171875 -1.78125 Z M 0.171875 -2.21875 "/></g></g></g><g fill="#5e17eb" fill-opacity="1"><g transform="translate(6.703206, 3.917656)"><g><path d="M 1.5625 -2.21875 L 2.40625 -2.21875 L 2.40625 -1.8125 L 2.234375 -1.8125 L 2.234375 0 L 1.75 0 L 0.828125 -1.4375 L 0.828125 -0.40625 L 1.015625 -0.40625 L 1.015625 0 L 0.171875 0 L 0.171875 -0.40625 L 0.34375 -0.40625 L 0.34375 -1.8125 L 0.171875 -1.8125 L 0.171875 -2.21875 L 0.84375 -2.21875 L 1.765625 -0.765625 L 1.765625 -1.8125 L 1.5625 -1.8125 Z M 1.5625 -2.21875 "/></g></g></g><g fill="#5e17eb" fill-opacity="1"><g transform="translate(10.088984, 3.917656)"><g><path d="M 0.171875 -2.21875 L 1.109375 -2.21875 L 1.109375 -1.8125 L 0.875 -1.8125 L 0.875 -0.40625 L 1.109375 -0.40625 L 1.109375 0 L 0.171875 0 L 0.171875 -0.40625 L 0.390625 -0.40625 L 0.390625 -1.8125 L 0.171875 -1.8125 Z M 0.171875 -2.21875 "/></g></g></g><g fill="#5e17eb" fill-opacity="1"><g transform="translate(12.174622, 3.917656)"><g><path d="M 0.546875 -0.40625 L 0.78125 -0.40625 L 0.78125 -1.828125 L 0.5 -1.828125 L 0.5 -1.546875 L 0.03125 -1.546875 L 0.03125 -2.21875 L 2.046875 -2.21875 L 2.046875 -1.546875 L 1.5625 -1.546875 L 1.5625 -1.828125 L 1.265625 -1.828125 L 1.265625 -0.40625 L 1.5 -0.40625 L 1.5 0 L 0.546875 0 Z M 0.546875 -0.40625 "/></g></g></g><g fill="#5e17eb" fill-opacity="1"><g transform="translate(15.168016, 3.917656)"><g><path d="M 1.65625 -2.21875 L 2.609375 -2.21875 L 2.609375 -1.8125 L 2.375 -1.8125 L 2.375 -0.40625 L 2.609375 -0.40625 L 2.609375 0 L 1.65625 0 L 1.65625 -0.40625 L 1.890625 -0.40625 L 1.890625 -0.96875 L 0.875 -0.96875 L 0.875 -0.40625 L 1.109375 -0.40625 L 1.109375 0 L 0.171875 0 L 0.171875 -0.40625 L 0.390625 -0.40625 L 0.390625 -1.8125 L 0.171875 -1.8125 L 0.171875 -2.21875 L 1.109375 -2.21875 L 1.109375 -1.8125 L 0.875 -1.8125 L 0.875 -1.359375 L 1.890625 -1.359375 L 1.890625 -1.8125 L 1.65625 -1.8125 Z M 1.65625 -2.21875 "/></g></g></g></g></g><g transform="matrix(1, 0, 0, 1, 21, 20)"><g clip-path="url(#ebd5a18fc2)"><g clip-path="url(#8f48801073)"><g fill="#ff00e2" fill-opacity="1"><g transform="translate(1.015955, 2.287868)"><g><path d="M 0.03125 0 L 0.4375 -1 L 0.5625 -1 L 0.96875 0 L 0.84375 0 L 0.734375 -0.234375 L 0.25 -0.234375 L 0.15625 0 Z M 0.296875 -0.34375 L 0.6875 -0.34375 L 0.5 -0.828125 Z M 0.296875 -0.34375 "/></g></g></g></g><g clip-path="url(#af710df307)"><g fill="#ff00e2" fill-opacity="1"><g transform="translate(2.586922, 2.287868)"><g><path d="M 0.140625 0 L 0.140625 -1 L 0.484375 -1 C 0.554688 -1 0.617188 -0.984375 0.671875 -0.953125 C 0.734375 -0.929688 0.78125 -0.894531 0.8125 -0.84375 C 0.84375 -0.789062 0.859375 -0.734375 0.859375 -0.671875 C 0.859375 -0.597656 0.84375 -0.535156 0.8125 -0.484375 C 0.78125 -0.429688 0.734375 -0.390625 0.671875 -0.359375 C 0.617188 -0.335938 0.554688 -0.328125 0.484375 -0.328125 L 0.265625 -0.328125 L 0.265625 0 Z M 0.265625 -0.453125 L 0.484375 -0.453125 C 0.648438 -0.453125 0.734375 -0.523438 0.734375 -0.671875 C 0.734375 -0.816406 0.648438 -0.890625 0.484375 -0.890625 L 0.265625 -0.890625 Z M 0.265625 -0.453125 "/></g></g></g></g><g clip-path="url(#da521df8cd)"><g fill="#ff00e2" fill-opacity="1"><g transform="translate(4.081669, 2.287868)"><g><path d="M 0.140625 0 L 0.140625 -1 L 0.484375 -1 C 0.554688 -1 0.617188 -0.984375 0.671875 -0.953125 C 0.734375 -0.929688 0.78125 -0.894531 0.8125 -0.84375 C 0.84375 -0.789062 0.859375 -0.734375 0.859375 -0.671875 C 0.859375 -0.597656 0.84375 -0.535156 0.8125 -0.484375 C 0.78125 -0.429688 0.734375 -0.390625 0.671875 -0.359375 C 0.617188 -0.335938 0.554688 -0.328125 0.484375 -0.328125 L 0.265625 -0.328125 L 0.265625 0 Z M 0.265625 -0.453125 L 0.484375 -0.453125 C 0.648438 -0.453125 0.734375 -0.523438 0.734375 -0.671875 C 0.734375 -0.816406 0.648438 -0.890625 0.484375 -0.890625 L 0.265625 -0.890625 Z M 0.265625 -0.453125 "/></g></g></g></g></g></g></svg>